<svg viewBox="0 0 106 31" fill="none" xmlns="http://www.w3.org/2000/svg">
<path d="M36.6809 0H3.94419C1.77488 0 0 1.77707 0 3.94904V27.051C0 29.2229 1.77488 31 3.94419 31H36.6809C38.8502 31 40.6251 29.2229 40.6251 27.051V3.94904C40.6251 1.77707 38.8502 0 36.6809 0ZM13.706 24.4841C9.36744 24.4841 6.21209 21.4236 6.21209 17.3758C6.21209 13.328 9.36744 10.2675 13.706 10.2675C18.0447 10.2675 21.2 13.2293 21.2 17.3758C21.2986 21.4236 18.0447 24.4841 13.706 24.4841ZM28.2009 24.4841C26.426 24.4841 24.6512 24.0892 23.3693 23.3981C22.8763 23.2006 22.6791 22.6083 22.9749 22.1146L23.2707 21.5223C23.4679 21.0287 24.0595 20.8312 24.5526 21.0287C25.6372 21.621 26.9191 21.9172 28.2009 21.9172C30.0744 21.9172 30.8633 21.3248 30.8633 20.4363C30.8633 17.8694 22.8763 19.6465 22.8763 14.5127C22.8763 12.1433 24.7498 10.2675 28.694 10.2675C30.0744 10.2675 31.4549 10.5637 32.6381 11.0573C33.1312 11.2548 33.3284 11.8471 33.1312 12.3408L32.8353 12.9331C32.6381 13.4268 32.0465 13.7229 31.5535 13.4268C30.5674 13.0318 29.5814 12.8344 28.5954 12.8344C26.7219 12.8344 26.0316 13.5255 26.0316 14.414C26.0316 16.9809 34.0186 15.2038 34.0186 20.2389C34.0186 22.5096 32.0465 24.4841 28.2009 24.4841Z" fill="white"/>
<path d="M13.706 12.9331C11.2409 12.9331 9.36743 14.7102 9.36743 17.3758C9.36743 19.9427 11.2409 21.8185 13.706 21.8185C16.1712 21.8185 18.0446 20.0414 18.0446 17.3758C18.0446 14.7102 16.1712 12.9331 13.706 12.9331Z" fill="white"/>
<path d="M48.1189 24.5829C47.0343 24.5829 45.9496 24.3854 44.9636 23.8918V21.5224H46.344V22.9046C46.9357 23.102 47.5273 23.102 48.1189 23.102C48.9078 23.102 49.4994 23.0033 49.8938 22.7071C50.1896 22.4109 50.3868 22.016 50.3868 21.5224C50.3868 21.0288 50.1896 20.6339 49.7952 20.4364C49.4008 20.1402 48.8091 19.844 47.9217 19.5479C46.7384 19.153 45.851 18.6593 45.4566 18.1657C45.0622 17.6721 44.7664 17.0797 44.7664 16.3886C44.7664 15.5001 45.1608 14.7103 45.851 14.2167C46.5412 13.6243 47.4287 13.3281 48.6119 13.3281C49.598 13.3281 50.584 13.5256 51.4715 14.0192V16.3886H50.091V14.9077C49.6966 14.7103 49.105 14.7103 48.5133 14.7103C47.8231 14.7103 47.3301 14.809 46.9357 15.1052C46.5412 15.4014 46.4426 15.7963 46.4426 16.1912C46.4426 16.6848 46.6398 16.981 47.0343 17.2772C47.4287 17.5733 48.0203 17.7708 48.8091 18.067C49.9924 18.4619 50.7812 18.9555 51.2743 19.4491C51.7673 19.9428 52.0631 20.6339 52.0631 21.4237C52.0631 22.4109 51.6687 23.102 50.9784 23.6944C50.2882 24.2867 49.3022 24.5829 48.1189 24.5829Z" fill="white" fill-opacity="0.7"/>
<path d="M62.2195 15.0063L58.6697 24.9776C58.4725 25.57 58.1767 26.1623 57.9795 26.7547C57.7823 27.2483 57.4865 27.742 57.0921 28.1369C56.7962 28.5318 56.4018 28.8279 55.9088 29.0254C55.5144 29.2228 54.9227 29.3216 54.3311 29.3216C54.0353 29.3216 53.6409 29.3216 53.3451 29.2228V27.742C53.7395 27.8407 54.0353 27.8407 54.3311 27.8407C54.6269 27.8407 54.9228 27.8407 55.12 27.742C55.3172 27.6432 55.613 27.5445 55.8102 27.347C56.0074 27.1496 56.3032 26.8534 56.5004 26.3598C56.6976 25.8662 56.9934 25.2738 57.2893 24.3853H57.1907L54.0353 14.9076H52.8521V13.5254H56.9934V14.9076H55.8102L58.1767 22.2133H58.2753L60.7404 14.9076H59.4586V13.5254H63.6V14.9076H62.2195V15.0063Z" fill="white" fill-opacity="0.7"/>
<path d="M67.8399 24.5829C66.7552 24.5829 65.6706 24.3854 64.6845 23.8918V21.5224H66.065V22.9046C66.6566 23.102 67.2482 23.102 67.8399 23.102C68.6287 23.102 69.2203 23.0033 69.6147 22.7071C69.9106 22.4109 70.1078 22.016 70.1078 21.5224C70.1078 21.0288 69.9106 20.6339 69.5161 20.4364C69.1217 20.1402 68.5301 19.844 67.6427 19.5479C66.4594 19.153 65.572 18.6593 65.1775 18.1657C64.7831 17.6721 64.4873 17.0797 64.4873 16.3886C64.4873 15.5001 64.8817 14.7103 65.572 14.2167C66.2622 13.6243 67.1496 13.3281 68.3329 13.3281C69.3189 13.3281 70.305 13.5256 71.1924 14.0192V16.3886H69.812V14.9077C69.4175 14.7103 68.8259 14.7103 68.2343 14.7103C67.544 14.7103 67.051 14.809 66.6566 15.1052C66.2622 15.4014 66.1636 15.7963 66.1636 16.1912C66.1636 16.6848 66.3608 16.981 66.7552 17.2772C67.1496 17.5733 67.7413 17.7708 68.5301 18.067C69.7133 18.4619 70.5022 18.9555 70.9952 19.4491C71.4882 19.9428 71.7841 20.6339 71.7841 21.4237C71.7841 22.4109 71.3896 23.102 70.6994 23.6944C70.0092 24.2867 69.0231 24.5829 67.8399 24.5829Z" fill="white" fill-opacity="0.7"/>
<path d="M77.1087 24.5829C76.3199 24.5829 75.7283 24.3855 75.2353 23.9906C74.7422 23.5957 74.545 23.0033 74.545 22.2135V15.1052H73.1646V13.7231H74.545V11.2549L76.2213 10.9587V13.7231H78.6864V15.1052H76.2213V22.0161C76.2213 22.5097 76.3199 22.9046 76.5171 23.1021C76.7143 23.2995 77.0101 23.3982 77.306 23.3982C77.7004 23.3982 78.1934 23.2995 78.5878 23.1021V24.4842C78.1934 24.4842 77.7004 24.5829 77.1087 24.5829Z" fill="white" fill-opacity="0.7"/>
<path d="M87.9551 22.3121V23.793C87.0676 24.3854 85.983 24.6815 84.7997 24.6815C83.3207 24.6815 82.236 24.1879 81.4472 23.2006C80.6583 22.2134 80.2639 20.9299 80.2639 19.1529C80.2639 17.3758 80.6583 15.9936 81.5458 14.9076C82.4332 13.9204 83.5179 13.4268 84.7997 13.4268C85.8844 13.4268 86.6732 13.8217 87.3634 14.7102C88.0537 15.5987 88.3495 16.7834 88.3495 18.2643V19.1529H81.8416C81.8416 20.4363 82.1374 21.4236 82.6304 22.1147C83.1235 22.8057 83.8137 23.2006 84.8983 23.2006C85.983 23.2006 87.0676 22.9045 87.9551 22.3121ZM86.5746 17.7707C86.5746 16.6847 86.3774 15.9936 85.983 15.5C85.5886 15.0064 85.0955 14.8089 84.4053 14.8089C83.7151 14.8089 83.1235 15.1051 82.729 15.5987C82.236 16.0924 82.0388 16.8822 81.9402 17.8694H86.5746V17.7707Z" fill="white" fill-opacity="0.7"/>
<path d="M89.9272 23.0032H91.3077V15.1051H89.9272V13.7229H92.7867L92.8853 15.1051C93.8714 14.0191 94.956 13.4268 96.2379 13.4268C97.5197 13.4268 98.3086 14.0191 98.6044 15.1051H98.703C99.689 13.9204 100.774 13.4268 102.056 13.4268C102.943 13.4268 103.633 13.7229 104.028 14.2166C104.422 14.7102 104.619 15.5 104.619 16.3885V23.0032H106V24.3854H101.858V23.0032H102.943V16.586C102.943 15.8949 102.844 15.4013 102.549 15.1051C102.253 14.8089 101.957 14.7102 101.464 14.7102C100.478 14.7102 99.5904 15.2038 98.703 16.2898V23.0032H99.7877V24.3854H95.9421V23.0032H97.0267V16.586C97.0267 15.8949 96.9281 15.4013 96.6323 15.1051C96.4351 14.9076 96.0407 14.7102 95.6463 14.7102C94.5616 14.7102 93.6742 15.3026 92.7867 16.3885V22.9045H93.8714V24.2866H89.73V23.0032H89.9272Z" fill="white" fill-opacity="0.7"/>
</svg>
